# xmcd
#
# Track frame offsets: 
#        150
#        16487
#        36311
#        57229
#        79240
#        96842
#        113042
#        128800
#        149376
#        167440
#        193696
#        213658
#        236418
#        255712
#
# Disc length: 3740 seconds
#
# Revision: 0
# Processed by: cddbd v1.5.2PL0 Copyright (c) Steve Scherf et al.
# Submitted via: ExactAudioCopy v1.3
#
DISCID=c30e9a0e
DTITLE=Beth Hart - War In My Mind
DYEAR=2019
DGENRE=Blues Rock
TTITLE0=Bad Woman Blues
TTITLE1=War In My Mind
TTITLE2=Without Words In The Way
TTITLE3=Let It Grow
TTITLE4=Try A Little Harder
TTITLE5=Sister Dear
TTITLE6=Spanish Lullabies
TTITLE7=Rub Me For Luck
TTITLE8=Sugar Shack
TTITLE9=Woman Down
TTITLE10=Thankful
TTITLE11=I Need A Hero
TTITLE12=Love Gangster (Live)
TTITLE13=Fire On The Floor (Live)
EXTD=
EXTT0=
EXTT1=
EXTT2=
EXTT3=
EXTT4=
EXTT5=
EXTT6=
EXTT7=
EXTT8=
EXTT9=
EXTT10=
EXTT11=
EXTT12=
EXTT13=
PLAYORDER=
